<svg viewBox="0 0 12 12" width="168px" height="168px" xmlns="http://www.w3.org/2000/svg"><path fill-rule="evenodd" d="M 3,0 9,0 9,1 12,1 12,6 11,6 11,9 12,9 12,12 9,12 9,11 3,11 3,12 0,12 0,9 1,9 1,6 0,6 0,1 3,1z" fill="#3FA6DA"/><path fill-rule="evenodd" d="M 4,1 5,1 5,2 4,2z" fill="#ffffff"/><path fill-rule="evenodd" d="M 7,1 8,1 8,2 7,2z" fill="#ffffff"/><path fill-rule="evenodd" d="M 1,2 2,2 2,3 1,3z" fill="#ffffff"/><path fill-rule="evenodd" d="M 10,2 11,2 11,3 10,3z" fill="#ffffff"/><path fill-rule="evenodd" d="M 1,4 3,4 3,5 1,5z" fill="#ffffff"/><path fill-rule="evenodd" d="M 4,4 5,4 5,5 4,5z" fill="#ffffff"/><path fill-rule="evenodd" d="M 7,4 8,4 8,5 7,5z" fill="#ffffff"/><path fill-rule="evenodd" d="M 9,4 11,4 11,5 9,5z" fill="#ffffff"/><path fill-rule="evenodd" d="M 2,7 3,7 3,8 2,8z" fill="#ffffff"/><path fill-rule="evenodd" d="M 4,7 8,7 8,8 7,8 7,10 5,10 5,8 4,8z" fill="#ffffff"/><path fill-rule="evenodd" d="M 9,7 10,7 10,8 9,8z" fill="#ffffff"/><path fill-rule="evenodd" d="M 2,9 3,9 3,10 2,10z" fill="#ffffff"/><path fill-rule="evenodd" d="M 9,9 10,9 10,10 9,10z" fill="#ffffff"/><path fill-rule="evenodd" d="M 1,10 2,10 2,11 1,11z" fill="#ffffff"/><path fill-rule="evenodd" d="M 10,10 11,10 11,11 10,11z" fill="#ffffff"/></svg>